<svg xmlns="http://www.w3.org/2000/svg" fill-rule="evenodd" viewBox="0 0 100 100">
    <path d="M81.23 17H18.77c-3.71 0-6.68 2.43-6.77 5.58v45.74c0 3.13 3 5.68 6.77 5.68H48v11H30.5a1.5 1.5 0 0 0 0 3h39a1.5 1.5 0 0 0 0-3H51V74h30.23C85 74 88 71.45 88 68.32V22.68c0-3.13-3-5.68-6.77-5.68ZM85 68.32c0 1.45-1.73 2.68-3.77 2.68H18.77c-2 0-3.77-1.23-3.77-2.68v-45.7c0-1.44 1.73-2.62 3.77-2.62h62.46c2 0 3.77 1.23 3.77 2.68Z"/>
    <path d="M55.27 36.63a1.5 1.5 0 0 0-2 .65L45.19 53a1.5 1.5 0 1 0 2.67 1.37l8.06-15.75a1.5 1.5 0 0 0-.65-1.99Zm9.59-.55a1.5 1.5 0 0 0-2.12 2.12l7.48 7.47-7.48 7.47a1.5 1.5 0 1 0 2.12 2.12l8.54-8.53a1.5 1.5 0 0 0 0-2.12Zm-26.46 0a1.5 1.5 0 0 0-2.12 0l-8.54 8.54a1.5 1.5 0 0 0 0 2.12l8.54 8.54a1.5 1.5 0 0 0 2.12-2.12l-7.48-7.47 7.48-7.49a1.5 1.5 0 0 0 0-2.12Z"/>
</svg>
