<svg xmlns="http://www.w3.org/2000/svg" fill-rule="evenodd" viewBox="0 0 100 100">
    <path d="M80.5 13h-50a1.5 1.5 0 0 0-1.06.44l-10 9.95a1.43 1.43 0 0 0-.18.27 1.45 1.45 0 0 0-.17.37 1.49 1.49 0 0 0-.07.35s0 .05 0 .08v63A1.5 1.5 0 0 0 20.5 89h50a1.49 1.49 0 0 0 .53-.1 1.5 1.5 0 0 0 .47-.31l10-9.95a1.5 1.5 0 0 0 .5-1.09V14.5a1.5 1.5 0 0 0-1.5-1.5Zm-49.38 3h45.76l-7 7h-45.8ZM22 86V26h46.9v.06h.06V86Zm50-2.11V25.12l7-7v58.81Z"/>
    <path d="M53.5 32a1.5 1.5 0 0 0-1.5 1.5V41a6.29 6.29 0 0 1-2 4.6 7.29 7.29 0 0 1-5.42 1.93A6.91 6.91 0 0 1 38 40.64V33.5a1.5 1.5 0 0 0-3 0v7.14a9.91 9.91 0 0 0 9.39 9.84h.6a10.28 10.28 0 0 0 7-2.76A9.26 9.26 0 0 0 55 41v-7.5a1.5 1.5 0 0 0-1.5-1.5Z"/>
</svg>
